<svg width="364" height="329" viewBox="0 0 364 329" fill="none" xmlns="http://www.w3.org/2000/svg">
<path opacity="0.9" d="M82.7527 251.416C145.949 280.104 159.197 233.367 206.804 202.744C244.749 178.322 283.366 185.015 312.195 143.763C337.32 107.815 342.876 44.9635 318.015 20.41C287.734 -9.51479 237.694 -5.75767 201.946 27.018C174.706 51.9585 158.235 107.201 123.286 114.81C83.0705 123.58 60.3705 83.2899 22.6794 107.891C-46.7735 153.174 71.3664 246.243 82.7527 251.416Z" fill="#4A607A"/>
<path opacity="0.1" d="M187 328.617C284.231 328.617 363.052 323.832 363.052 317.931C363.052 312.029 284.231 307.245 187 307.245C89.769 307.245 10.9478 312.029 10.9478 317.931C10.9478 323.832 89.769 328.617 187 328.617Z" fill="#0D1C41"/>
<path opacity="0.6" d="M10.9594 73.3208H145.459L147.829 114.838L147.829 114.843C148.115 119.135 149.944 123.161 152.957 126.121C154.633 127.767 156.608 129.017 158.746 129.81H28.6024C24.7131 129.76 20.9808 128.19 18.1477 125.407C15.3139 122.624 13.5877 118.83 13.3173 114.779C13.3172 114.778 13.3172 114.778 13.3171 114.777L10.9594 73.3208Z" fill="white" stroke="black"/>
<path d="M174.152 44.888H53.5239C51.6009 44.8644 49.6941 45.2562 47.9242 46.0386C46.1544 46.8209 44.5601 47.9768 43.2422 49.4329C41.9244 50.8891 40.9117 52.6139 40.2683 54.4981C39.6249 56.3823 39.3647 58.3849 39.5044 60.3791L42.6279 114.82C42.7704 116.814 42.5122 118.818 41.8698 120.704C41.2274 122.589 40.2148 124.315 38.8964 125.772C37.578 127.229 35.9826 128.384 34.2114 129.166C32.4403 129.947 30.5322 130.337 28.6084 130.311H164.109C166.033 130.337 167.941 129.947 169.712 129.166C171.483 128.384 173.079 127.229 174.397 125.772C175.716 124.315 176.728 122.589 177.371 120.704C178.013 118.818 178.271 116.814 178.129 114.82L178.465 120.71L175.032 60.4168C174.885 58.419 175.139 56.4111 175.779 54.5211C176.419 52.6311 177.431 50.9005 178.75 49.4395C180.069 47.9785 181.666 46.8193 183.44 46.0356C185.214 45.252 187.125 44.8611 189.052 44.888H174.152Z" fill="#0D1C41"/>
<path d="M215.944 264.435H81.4451L69.8042 60.3508L69.8039 60.3462C69.52 56.0548 67.6917 52.0281 64.6777 49.0694C63.0043 47.4269 61.0336 46.1805 58.9009 45.3882H189.049C192.942 45.4395 196.678 47.013 199.512 49.8015C202.347 52.5907 204.07 56.3911 204.334 60.4474C204.334 60.448 204.334 60.4487 204.334 60.4494L215.944 264.435Z" fill="white" stroke="black"/>
<path d="M114.959 103.114H89.844L88.3276 76.9839H113.452L114.959 103.114ZM92.568 100.036H111.79L110.728 80.0519H91.4693L92.568 100.036Z" fill="#0D1C41"/>
<path d="M118.464 164.578H93.3216L91.8325 138.438H116.975L118.464 164.578ZM96.1001 161.5H115.322L114.187 141.516H94.9651L96.1001 161.5Z" fill="#0D1C41"/>
<path d="M121.96 226.042H96.8174L95.292 199.902H120.434L121.96 226.042ZM99.605 222.964H118.827L117.683 202.98H98.4609L99.605 222.964Z" fill="#0D1C41"/>
<path d="M185.039 76.9746H127.235V80.0521H185.039V76.9746Z" fill="#0D1C41"/>
<path d="M178.901 88.5103H127.889V91.5877H178.901V88.5103Z" fill="#0D1C41"/>
<path d="M186.346 100.037H128.543V103.114H186.346V100.037Z" fill="#0D1C41"/>
<path d="M188.534 138.438H130.731V141.516H188.534V138.438Z" fill="#0D1C41"/>
<path d="M165.317 149.974H131.385V153.052H165.317V149.974Z" fill="#0D1C41"/>
<path d="M149.563 161.5H132.048V164.578H149.563V161.5Z" fill="#0D1C41"/>
<path d="M189.851 161.5H160.949V164.578H189.851V161.5Z" fill="#0D1C41"/>
<path d="M192.03 199.902H134.227V202.98H192.03V199.902Z" fill="#0D1C41"/>
<path d="M192.693 211.438H134.89V214.515H192.693V211.438Z" fill="#0D1C41"/>
<path d="M167.514 222.964H135.543V226.042H167.514V222.964Z" fill="#0D1C41"/>
<path d="M104.036 96.9591C103.408 96.9599 102.803 96.7098 102.347 96.2606L96.2 90.2001C95.9651 89.9689 95.7762 89.6919 95.6443 89.3848C95.5124 89.0777 95.44 88.7467 95.4311 88.4105C95.4132 87.7316 95.6555 87.0731 96.1046 86.5799C96.5537 86.0866 97.1729 85.7991 97.826 85.7805C98.479 85.762 99.1124 86.0138 99.5868 86.4807L103.963 90.7759L113.815 79.8916C114.263 79.3972 114.882 79.1079 115.535 79.0876C116.188 79.0672 116.822 79.3174 117.297 79.7831C117.773 80.2488 118.051 80.8918 118.071 81.5707C118.09 82.2496 117.85 82.9088 117.402 83.4033L105.861 96.1567C105.64 96.4038 105.373 96.6021 105.077 96.7399C104.78 96.8778 104.46 96.9523 104.136 96.9591H104.036Z" fill="#A89060"/>
<path d="M107.541 158.423C106.912 158.426 106.307 158.175 105.852 157.724L99.6776 151.664C99.4344 151.436 99.2375 151.159 99.0985 150.85C98.9595 150.542 98.8812 150.208 98.8682 149.867C98.8551 149.527 98.9076 149.187 99.0226 148.868C99.1376 148.549 99.3127 148.257 99.5377 148.009C99.7627 147.761 100.033 147.563 100.333 147.425C100.633 147.288 100.956 147.214 101.283 147.208C101.611 147.202 101.937 147.264 102.241 147.39C102.545 147.517 102.822 147.705 103.055 147.945L107.441 152.24L117.284 141.356C117.732 140.861 118.35 140.572 119.003 140.551C119.656 140.531 120.29 140.781 120.766 141.247C121.242 141.713 121.52 142.356 121.539 143.035C121.559 143.714 121.318 144.373 120.87 144.867L109.33 157.621C109.11 157.867 108.845 158.065 108.55 158.203C108.255 158.341 107.937 158.415 107.614 158.423H107.541Z" fill="#A89060"/>
<path d="M111.037 219.896C110.407 219.896 109.802 219.642 109.348 219.188L103.173 213.128C102.93 212.899 102.733 212.623 102.594 212.314C102.455 212.006 102.377 211.671 102.364 211.331C102.351 210.991 102.403 210.651 102.518 210.332C102.633 210.013 102.808 209.721 103.033 209.473C103.258 209.225 103.529 209.027 103.828 208.889C104.128 208.751 104.451 208.677 104.779 208.671C105.107 208.665 105.432 208.728 105.737 208.854C106.041 208.981 106.318 209.169 106.551 209.408L110.937 213.704L120.788 202.819C121.25 202.407 121.841 202.188 122.449 202.202C123.057 202.217 123.639 202.466 124.081 202.9C124.523 203.333 124.795 203.922 124.844 204.553C124.894 205.183 124.717 205.81 124.348 206.312L112.807 219.066C112.585 219.311 112.318 219.509 112.022 219.647C111.726 219.784 111.406 219.86 111.082 219.868L111.037 219.896Z" fill="#A89060"/>
<path d="M241.26 75.2125L223.625 79.7192L276.252 302.306L293.887 297.799L241.26 75.2125Z" fill="white"/>
<path d="M276.621 301.696L224.224 80.082L240.89 75.8229L293.287 297.436L276.621 301.696Z" stroke="#0D1C41" stroke-opacity="0.7"/>
<path opacity="0.2" d="M241.25 75.2107L235.88 76.583L288.508 299.17L293.877 297.797L241.25 75.2107Z" fill="black"/>
<path d="M292.554 301.111L278.887 304.603C277.792 304.883 277.122 306.034 277.391 307.173L279.68 316.853C279.949 317.993 281.056 318.689 282.151 318.409L295.819 314.916C296.914 314.636 297.584 313.486 297.315 312.347L295.026 302.666C294.757 301.527 293.65 300.831 292.554 301.111Z" fill="#407BFF"/>
<path opacity="0.7" d="M292.554 301.111L278.887 304.603C277.792 304.883 277.122 306.034 277.391 307.173L279.68 316.853C279.949 317.993 281.056 318.689 282.151 318.409L295.819 314.916C296.914 314.636 297.584 313.486 297.315 312.347L295.026 302.666C294.757 301.527 293.65 300.831 292.554 301.111Z" fill="#A89060"/>
<path d="M292.66 294.596L275.898 298.88C274.885 299.139 274.266 300.202 274.515 301.255L276.015 307.599C276.264 308.652 277.287 309.296 278.3 309.037L295.062 304.753C296.075 304.495 296.694 303.431 296.445 302.378L294.945 296.034C294.696 294.981 293.673 294.337 292.66 294.596Z" fill="#E0E0E0"/>
<path d="M241.262 75.1905L223.629 79.7028L225.699 64.3628L227.025 54.5264L232.591 62.5976L241.262 75.1905Z" fill="#E0E0E0"/>
<path d="M232.591 62.5975L225.699 64.3628L227.025 54.5264L232.591 62.5975Z" fill="#A89060"/>
<path d="M286.807 60.6338C286.716 66.2978 285.663 76.9744 288.532 80.4578C281.937 82.7127 276.024 86.7221 271.38 92.0879C267.449 85.4044 272.579 81.8077 272.579 81.8077C278.236 79.9197 277.891 75.4924 276.701 71.4237L286.807 60.6338Z" fill="#FFB573"/>
<path d="M269.71 86.3201C271.208 80.5334 266.986 79.7121 274.023 76.8801C279.525 74.6145 289.922 74.2935 292.365 76.1155C293.718 77.135 291.856 80.7033 291.856 80.7033L269.71 86.3201Z" fill="#263238"/>
<path d="M300.209 85.0742C300.618 85.7539 300.909 86.2731 301.235 86.8678C301.562 87.4625 301.835 88.01 302.143 88.5859C302.725 89.7375 303.269 90.8892 303.796 92.0598C304.849 94.3915 305.766 96.7798 306.611 99.1964C308.307 104.091 309.524 109.152 310.243 114.3L310.479 116.245C310.524 116.519 310.561 117.01 310.588 117.435C310.615 117.859 310.588 118.246 310.588 118.624C310.567 120.017 310.467 121.407 310.288 122.787C309.97 125.392 309.489 127.856 308.963 130.339C307.89 135.181 306.535 139.951 304.904 144.622C304.687 145.255 304.256 145.785 303.691 146.111C303.126 146.438 302.466 146.54 301.834 146.398C301.202 146.256 300.642 145.879 300.258 145.338C299.873 144.798 299.692 144.13 299.746 143.461C300.11 138.665 300.536 133.832 300.872 129.112C301.036 126.752 301.163 124.392 301.199 122.164C301.199 121.059 301.199 119.964 301.099 119.049L301.018 118.416L300.9 117.803L300.564 116.16C299.594 111.736 298.288 107.399 296.659 103.19C295.842 101.075 294.961 98.9793 294.035 96.9119C293.575 95.8735 293.094 94.854 292.591 93.8534L291.829 92.3619L291.111 90.9931L290.984 90.7476C290.323 89.48 290.162 87.9943 290.538 86.6059C290.913 85.2175 291.794 84.0358 292.994 83.312C294.193 82.5882 295.617 82.3791 296.963 82.7293C298.309 83.0795 299.47 83.9613 300.2 85.1875L300.209 85.0742Z" fill="#FFB573"/>
<path d="M297.776 146.528L298.53 145.226L300.655 141.506L304.55 143.8C305.358 147.576 302.888 150.918 302.888 150.918L301.79 151.862C301.415 152.201 300.931 152.378 300.435 152.359C299.939 152.34 299.469 152.125 299.12 151.758L298.276 150.946C297.744 150.365 297.408 149.62 297.318 148.824C297.228 148.027 297.389 147.222 297.776 146.528Z" fill="#FFB573"/>
<path d="M246.02 144.603L245.394 142.243C245.247 141.688 244.896 141.215 244.417 140.925C243.939 140.636 243.37 140.553 242.833 140.695L240.109 141.422L238.429 141.856C237.546 142.095 236.761 142.628 236.195 143.372C235.628 144.116 235.309 145.032 235.288 145.981V147.388C235.284 148 235.504 148.592 235.903 149.042C236.303 149.492 236.852 149.768 237.44 149.814L239.119 149.984C241.639 149.566 243.95 148.276 245.675 146.321C245.862 146.085 245.991 145.805 246.051 145.506C246.111 145.207 246.101 144.897 246.02 144.603Z" fill="#FFB573"/>
<path d="M295.67 80.9204C300.437 83.1199 304.804 88.3591 308.382 98.054C307.238 102.047 295.424 108.589 295.424 108.589C295.424 108.589 280.688 76.106 295.67 80.9204Z" fill="#407BFF"/>
<path d="M256.235 93.3338C256.28 96.9305 250.551 105.266 257.143 110.099C257.715 117.378 258.487 124.542 259.985 136.484H295.243C291.892 123.268 294.789 114.394 300.164 91.1721C300.471 89.9242 300.515 88.6221 300.293 87.3549C300.071 86.0877 299.588 84.8854 298.877 83.8302C298.167 82.7751 297.245 81.892 296.176 81.2415C295.107 80.5909 293.915 80.1883 292.682 80.0612C291.275 79.9196 289.786 79.7969 288.269 79.7119C282.937 79.3148 277.584 79.3148 272.252 79.7119C270.518 79.8724 268.729 80.0989 267.013 80.3444C264.014 80.7987 261.273 82.3624 259.293 84.7484C257.313 87.1344 256.227 90.1827 256.235 93.3338Z" fill="#A89060"/>
<path d="M267.912 89.832C267.994 92.5318 267.912 95.1184 267.912 97.7616C267.912 100.405 267.748 103.02 267.585 105.663C267.304 111.021 266.697 116.356 265.769 121.635C265.66 122.306 265.488 123.004 265.333 123.684C265.179 124.364 265.043 125.043 264.834 125.761L264.543 126.808L264.389 127.337C264.33 127.574 264.258 127.808 264.171 128.036C263.791 129.052 263.271 130.006 262.627 130.868C261.742 132.062 260.774 133.189 259.731 134.238C258.777 135.229 257.806 136.126 256.825 137.07C252.964 140.528 248.86 143.684 244.549 146.51C244.008 146.863 243.362 147.003 242.73 146.904C242.098 146.805 241.521 146.473 241.104 145.969C240.688 145.464 240.459 144.822 240.459 144.157C240.46 143.492 240.69 142.85 241.108 142.347C244.349 138.505 247.691 134.691 250.805 130.915C251.568 129.971 252.312 129.027 253.021 128.083C253.686 127.244 254.292 126.358 254.837 125.43C255.055 125.081 255.191 124.656 255.073 124.892C254.955 125.128 255.073 124.769 255.073 124.666L255.154 124.25L255.327 123.429C255.454 122.9 255.527 122.306 255.618 121.73C255.708 121.154 255.817 120.578 255.872 119.974C256.489 115.207 256.78 110.185 256.952 105.163C257.125 100.14 257.234 95.024 257.261 90.0586C257.253 89.3309 257.383 88.6087 257.644 87.9333C257.905 87.2579 258.291 86.6426 258.78 86.1223C259.769 85.0716 261.118 84.4722 262.532 84.4559C263.946 84.4396 265.308 85.0078 266.318 86.0355C267.329 87.0632 267.905 88.4662 267.921 89.9358L267.912 89.832Z" fill="#FFB573"/>
<path d="M264.026 81.1848C259.676 83.4315 255.363 87.7928 253.575 97.7803C254.71 101.736 270.255 109.354 270.255 109.354C270.255 109.354 278.908 75.4075 264.026 81.1848Z" fill="#A89060"/>
<path d="M264.979 57.0279C265.097 57.7359 264.825 58.3967 264.371 58.4817C263.917 58.5667 263.463 58.0758 263.345 57.3583C263.227 56.6409 263.508 55.9895 263.953 55.9046C264.398 55.8196 264.87 56.3105 264.979 57.0279Z" fill="#263238"/>
<path d="M264.18 55.8952L262.446 55.7441C262.446 55.7441 263.49 56.9052 264.18 55.8952Z" fill="#263238"/>
<path d="M264.816 57.8208C264.459 59.5808 263.876 61.2828 263.082 62.8806C263.48 63.0738 263.913 63.1739 264.353 63.1739C264.792 63.1739 265.226 63.0738 265.624 62.8806L264.816 57.8208Z" fill="#ED893E"/>
<path d="M263.181 52.1569C263.077 52.156 262.977 52.1157 262.9 52.0436C262.861 52.0041 262.831 51.957 262.81 51.9052C262.789 51.8533 262.778 51.7977 262.778 51.7415C262.778 51.6853 262.789 51.6297 262.81 51.5778C262.831 51.526 262.861 51.4789 262.9 51.4394C263.343 50.9315 263.896 50.5401 264.513 50.2973C265.13 50.0545 265.794 49.9671 266.45 50.0423C266.502 50.0525 266.552 50.0733 266.596 50.1035C266.64 50.1338 266.678 50.1729 266.708 50.2186C266.737 50.2643 266.758 50.3156 266.768 50.3696C266.778 50.4236 266.778 50.4792 266.768 50.5332C266.746 50.6462 266.682 50.7459 266.591 50.8111C266.499 50.8764 266.387 50.9019 266.277 50.8825C265.758 50.8334 265.235 50.9111 264.749 51.1094C264.263 51.3077 263.829 51.6211 263.481 52.0247C263.402 52.1082 263.294 52.1557 263.181 52.1569Z" fill="#263238"/>
<path d="M287.452 49.995C288.36 58.8686 288.905 62.6069 285.427 67.931C280.188 76.0022 269.655 75.483 266.268 67.1475C263.217 59.5955 262.264 46.3795 269.855 41.2253C271.488 40.0675 273.385 39.3762 275.355 39.2207C277.326 39.0651 279.302 39.4508 281.084 40.339C282.866 41.2272 284.393 42.5868 285.51 44.2815C286.628 45.9762 287.298 47.9465 287.452 49.995Z" fill="#FFB573"/>
<path d="M271.926 56.4802C266.478 55.4796 265.161 48.9754 267.177 46.1434C257.997 46.5682 251.813 35.8916 261.729 29.8028C271.644 23.714 280.397 33.1446 279.689 36.7034C291.902 35.5518 299.057 46.0018 292.401 53.771C301.181 55.253 314.329 65.5426 304.677 76.3514C317.725 78.3433 319.142 120.823 283.621 113.271C246.175 105.304 278.708 71.4237 278.708 71.4237C278.708 71.4237 269.22 68.6484 271.926 56.4802Z" fill="#263238"/>
<path d="M306.711 79.1176L305.939 78.6267C309.235 73.0571 309.78 67.9878 307.555 63.5227C304.695 57.8587 297.758 54.5169 292.374 54.196L292.428 53.252C298.058 53.5824 305.349 57.028 308.363 63.079C310.706 67.799 310.134 73.3308 306.711 79.1176Z" fill="#263238"/>
<path d="M296.387 54.7244C299.52 54.1863 298.04 48.8716 295.733 47.465C293.427 46.0585 282.377 48.343 283.593 52.0057C284.81 55.6684 292.183 55.4513 296.387 54.7244Z" fill="white"/>
<path d="M296.95 53.3837C300.073 52.7606 298.82 48.456 296.478 47.1061C294.135 45.7562 284.483 46.7568 285.8 50.3723C287.116 53.9878 292.773 54.2427 296.95 53.3837Z" fill="#A89060"/>
<path d="M264.225 47.2194C262.133 47.1901 260.111 46.436 258.478 45.0765C255.872 42.9714 254.437 39.8184 254.846 37.0431C255.091 35.2778 256.153 32.8517 259.858 31.313L260.194 32.1909C257.579 33.2765 256.044 35.0229 255.745 37.1752C255.418 39.6296 256.716 42.4333 259.068 44.3307C260.159 45.2765 261.473 45.9027 262.874 46.145C264.275 46.3872 265.713 46.2367 267.04 45.709L267.385 46.5869C266.383 47.0134 265.309 47.2284 264.225 47.2194Z" fill="#263238"/>
<path d="M274.077 57.5186C273.668 59.8408 273.541 60.832 272.379 61.9176C272.049 62.3017 271.615 62.5732 271.133 62.6964C270.652 62.8197 270.146 62.789 269.682 62.6085C269.218 62.4279 268.817 62.1058 268.532 61.6844C268.247 61.263 268.091 60.7619 268.084 60.2468C267.903 58.1133 268.602 54.6771 270.681 53.9597C272.76 53.2423 274.486 55.2058 274.077 57.5186Z" fill="#FFB573"/>
<path d="M269.065 64.9103L268.33 63.5415C268.299 63.4855 268.282 63.422 268.282 63.3574C268.282 63.2928 268.299 63.2293 268.33 63.1733L269.065 61.8139C269.097 61.7549 269.143 61.7057 269.198 61.6715C269.254 61.6372 269.318 61.6191 269.383 61.6191C269.448 61.6191 269.511 61.6372 269.567 61.6715C269.623 61.7057 269.669 61.7549 269.701 61.8139L270.436 63.1733C270.467 63.2293 270.484 63.2928 270.484 63.3574C270.484 63.422 270.467 63.4855 270.436 63.5415L269.701 64.9103C269.669 64.9693 269.623 65.0185 269.567 65.0527C269.511 65.087 269.448 65.1051 269.383 65.1051C269.318 65.1051 269.254 65.087 269.198 65.0527C269.143 65.0185 269.097 64.9693 269.065 64.9103Z" fill="white"/>
<path d="M260.003 136.456C260.003 136.456 258.759 183.788 257.098 214.921C255.336 243.496 253.075 310.322 253.075 310.322L260.021 310.7C260.021 310.7 275.385 254.465 274.74 220.491C292.773 172.97 286.29 137.881 286.29 137.881L260.003 136.456Z" fill="#FFB573"/>
<path d="M253.593 307.32C253.438 307.204 253.252 307.142 253.061 307.142C252.871 307.142 252.685 307.204 252.53 307.32C249.197 309.892 245.159 311.288 241.008 311.304C236.395 311.511 237.53 314.136 244.131 315.014C251.895 316.014 253.556 317.676 256.062 318.327C258.568 318.978 260.557 316.996 260.511 311.521C260.507 311.334 260.45 311.152 260.346 311C260.243 310.847 260.098 310.729 259.93 310.662C257.699 309.811 255.572 308.689 253.593 307.32Z" fill="#263238"/>
<path d="M269.219 136.456C269.219 136.456 281.931 192.473 289.295 218.584C297.04 245.96 303.178 308.434 303.133 310.501H309.144C309.144 310.501 316.907 259.865 307.328 218.556C306.42 151.532 295.306 136.503 295.306 136.503L269.219 136.456Z" fill="#FFB573"/>
<path d="M302.979 308.264C302.822 308.197 302.649 308.185 302.485 308.229C302.322 308.274 302.176 308.372 302.071 308.51C300.518 310.605 299.392 312.927 294.807 314.966C291.011 316.647 293.109 318.95 299.047 318.11C306.03 317.109 306.13 318.289 308.481 318.289C310.833 318.289 311.941 315.854 310.225 310.558C310.17 310.383 310.07 310.226 309.935 310.107C309.801 309.987 309.637 309.908 309.462 309.878C307.246 309.615 305.069 309.073 302.979 308.264Z" fill="#263238"/>
<path d="M260.003 136.456C260.003 136.456 254.011 177.935 254.855 234.632C273.813 234.52 292.652 231.498 310.761 225.664C310.761 225.664 311.033 152.202 295.261 136.484C286.154 133.936 260.212 135.625 260.003 136.456Z" fill="#263238"/>
<path opacity="0.2" d="M260.702 226.58C260.644 226.58 260.587 226.556 260.545 226.514C260.503 226.472 260.478 226.414 260.475 226.353C258.777 190.151 262.9 139.043 262.936 138.561C262.937 138.53 262.944 138.499 262.958 138.47C262.971 138.442 262.99 138.417 263.013 138.396C263.036 138.376 263.063 138.361 263.092 138.352C263.121 138.343 263.151 138.34 263.181 138.344C263.211 138.346 263.24 138.355 263.267 138.369C263.294 138.383 263.317 138.403 263.337 138.426C263.356 138.45 263.371 138.477 263.38 138.507C263.389 138.537 263.393 138.568 263.39 138.599C263.345 139.118 259.231 190.189 260.929 226.391C260.932 226.422 260.928 226.454 260.918 226.484C260.909 226.513 260.893 226.54 260.872 226.564C260.852 226.587 260.827 226.605 260.799 226.618C260.772 226.63 260.742 226.637 260.712 226.636L260.702 226.58Z" fill="white"/>
<path opacity="0.2" d="M284.428 190.377L289.595 161.925L291.674 168.731L284.428 190.377Z" fill="black"/>
</svg>
