<svg width="200" height="21" viewBox="0 0 200 21" fill="none" xmlns="http://www.w3.org/2000/svg">
<path d="M8.84415 10.1922C10.2447 9.29299 11.2043 7.55446 11.2043 5.57613C11.2043 2.66859 9.18132 0.330566 6.66553 0.330566H0.44091C0.207487 0.330566 0 0.54039 0 0.840137C0 1.10991 0.207487 1.34971 0.44091 1.34971H6.66553C8.68854 1.34971 10.3484 3.23811 10.3484 5.57613C10.3484 7.91416 8.68854 9.83254 6.66553 9.83254H0.88182V3.41796C0.88182 3.14819 0.674333 2.90839 0.44091 2.90839C0.207487 2.90839 0 3.14819 0 3.41796V17.8957C0 18.1955 0.207487 18.4053 0.44091 18.4053C0.674333 18.4053 0.88182 18.1955 0.88182 17.8957V10.8217H6.66553H7.02864H7.15831C9.33693 10.8217 11.1006 12.89 11.1006 15.4078C11.1006 17.9257 9.33693 19.9939 7.15831 19.9939H0.44091C0.207487 19.9939 0 20.2038 0 20.5035C0 20.7733 0.207487 20.9831 0.44091 20.9831H7.15831C9.80377 20.9831 11.9824 18.4952 11.9824 15.4078C11.9824 13.0099 10.6856 10.9716 8.84415 10.1922Z" fill="#120806"/>
<path d="M32.4028 20.294L25.1926 0.420805C25.1667 0.330881 25.1407 0.300905 25.1148 0.240956C25.1148 0.210981 25.0889 0.210982 25.0889 0.210982C24.9592 0.00115935 24.7258 -0.0587902 24.5442 0.0611084C24.4405 0.121058 24.3886 0.210982 24.3367 0.300906C24.2589 0.540703 17.0747 20.294 17.0747 20.294C16.9969 20.5638 17.1006 20.8336 17.3081 20.9534C17.5415 21.0733 17.8009 20.9534 17.8787 20.6837L24.7517 1.79964L31.5988 20.6837C31.6766 20.8935 31.8322 20.9834 32.0138 20.9834C32.0656 20.9834 32.1175 20.9834 32.1694 20.9534C32.4028 20.8336 32.5065 20.5638 32.4028 20.294ZM21.3022 14.8986C21.3022 15.1983 21.5097 15.4081 21.7431 15.4081H27.7343C27.9937 15.4081 28.1752 15.1983 28.1752 14.8986C28.1752 14.6288 27.9937 14.419 27.7343 14.419H21.7431C21.5097 14.419 21.3022 14.6288 21.3022 14.8986Z" fill="#120806"/>
<path d="M38.8638 0.330566C38.6303 0.330566 38.4229 0.54039 38.4229 0.840137V20.5035C38.4229 20.7733 38.6303 20.9831 38.8638 20.9831C39.0972 20.9831 39.3047 20.7733 39.3047 20.5035V0.840137C39.3047 0.54039 39.0972 0.330566 38.8638 0.330566ZM40.6533 20.5035C40.6533 20.7733 40.8608 20.9831 41.0942 20.9831H47.682C47.9154 20.9831 48.1229 20.7733 48.1229 20.5035C48.1229 20.2038 47.9154 19.9939 47.682 19.9939H41.0942C40.8608 19.9939 40.6533 20.2038 40.6533 20.5035Z" fill="#120806"/>
<path d="M66.4438 20.294L59.2336 0.420805C59.2077 0.330881 59.1817 0.300905 59.1558 0.240956C59.1558 0.210981 59.1299 0.210982 59.1299 0.210982C59.0002 0.00115935 58.7668 -0.0587902 58.5852 0.0611084C58.4815 0.121058 58.4296 0.210982 58.3777 0.300906C58.2999 0.540703 51.1157 20.294 51.1157 20.294C51.0379 20.5638 51.1416 20.8336 51.3491 20.9534C51.5825 21.0733 51.8419 20.9534 51.9197 20.6837L58.7927 1.79964L65.6398 20.6837C65.7176 20.8935 65.8732 20.9834 66.0548 20.9834C66.1066 20.9834 66.1585 20.9834 66.2104 20.9534C66.4438 20.8336 66.5475 20.5638 66.4438 20.294ZM55.3432 14.8986C55.3432 15.1983 55.5507 15.4081 55.7841 15.4081H61.7753C62.0347 15.4081 62.2163 15.1983 62.2163 14.8986C62.2163 14.6288 62.0347 14.419 61.7753 14.419H55.7841C55.5507 14.419 55.3432 14.6288 55.3432 14.8986Z" fill="#120806"/>
<path d="M85.5365 0.330986C85.3031 0.330986 85.1216 0.540809 85.1216 0.840556V18.9752L73.2429 0.540809C73.1392 0.360961 72.9317 0.271037 72.7761 0.360961C72.5945 0.420911 72.4648 0.600759 72.4648 0.840556V20.5039C72.4648 20.7737 72.6723 20.9835 72.9058 20.9835C73.1392 20.9835 73.3467 20.7737 73.3467 20.5039V2.36926L85.1994 20.8037C85.2772 20.9236 85.4069 20.9835 85.5365 20.9835H85.6922C85.8737 20.8936 85.9775 20.7138 85.9775 20.5039V0.840556C85.9775 0.540809 85.7959 0.330986 85.5365 0.330986Z" fill="#120806"/>
<path d="M107.734 17.2663C106.204 19.0048 104.181 19.9939 102.028 19.9939C97.567 19.9939 93.9619 15.7975 93.9619 10.6718C93.9619 5.51618 97.567 1.34971 102.028 1.34971C104.181 1.34971 106.204 2.30889 107.734 4.0774C107.889 4.25725 108.175 4.25725 108.356 4.0774C108.512 3.86758 108.512 3.53786 108.356 3.35801C106.645 1.40966 104.414 0.330566 102.028 0.330566C97.1001 0.330566 93.0801 4.94667 93.0801 10.6718C93.0801 16.367 97.1001 20.9831 102.028 20.9831C104.414 20.9831 106.645 19.934 108.356 17.9557C108.512 17.7758 108.512 17.4461 108.356 17.2663C108.175 17.0564 107.889 17.0564 107.734 17.2663Z" fill="#120806"/>
<path d="M115.018 1.34971H124.977C125.211 1.34971 125.418 1.10991 125.418 0.840137C125.418 0.54039 125.211 0.330566 124.977 0.330566H115.018C114.785 0.330566 114.577 0.54039 114.577 0.840137C114.577 1.10991 114.785 1.34971 115.018 1.34971ZM114.577 20.5035C114.577 20.7733 114.785 20.9831 115.018 20.9831H124.977C125.211 20.9831 125.418 20.7733 125.418 20.5035C125.418 20.2038 125.211 19.9939 124.977 19.9939H115.018C114.785 19.9939 114.577 20.2038 114.577 20.5035ZM114.577 17.8957C114.577 18.1955 114.785 18.4053 115.018 18.4053C115.251 18.4053 115.459 18.1955 115.459 17.8957V10.8517H124.796C125.029 10.8517 125.237 10.6119 125.237 10.3421C125.237 10.0723 125.029 9.83254 124.796 9.83254H115.459V3.41796C115.459 3.14819 115.251 2.90839 115.018 2.90839C114.785 2.90839 114.577 3.14819 114.577 3.41796V17.8957Z" fill="#AF2818"/>
<path d="M152.91 10.1922C154.31 9.29299 155.27 7.55446 155.27 5.57613C155.27 2.66859 153.247 0.330566 150.731 0.330566H144.506C144.273 0.330566 144.065 0.54039 144.065 0.840137C144.065 1.10991 144.273 1.34971 144.506 1.34971H150.731C152.754 1.34971 154.414 3.23811 154.414 5.57613C154.414 7.91416 152.754 9.83254 150.731 9.83254H144.947V3.41796C144.947 3.14819 144.74 2.90839 144.506 2.90839C144.273 2.90839 144.065 3.14819 144.065 3.41796V17.8957C144.065 18.1955 144.273 18.4053 144.506 18.4053C144.74 18.4053 144.947 18.1955 144.947 17.8957V10.8217H150.731H151.094H151.224C153.402 10.8217 155.166 12.89 155.166 15.4078C155.166 17.9257 153.402 19.9939 151.224 19.9939H144.506C144.273 19.9939 144.065 20.2038 144.065 20.5035C144.065 20.7733 144.273 20.9831 144.506 20.9831H151.224C153.869 20.9831 156.048 18.4952 156.048 15.4078C156.048 13.0099 154.751 10.9716 152.91 10.1922Z" fill="#AF2818"/>
<path d="M193.106 8.63355C193.184 8.6935 193.288 8.72347 193.391 8.72347C193.521 8.72347 193.651 8.66352 193.728 8.54363L198.812 1.13988C198.967 0.93006 198.916 0.600339 198.734 0.450466C198.553 0.270618 198.267 0.300593 198.112 0.510416L193.054 7.91416C192.898 8.12398 192.924 8.4537 193.106 8.63355ZM161.568 10.7318C161.594 13.6393 162.657 16.397 164.525 18.3453C166.185 20.0839 168.285 20.9831 170.49 20.9831C170.801 20.9831 171.112 20.9831 171.449 20.9531C175.703 20.4436 179.049 16.5169 179.412 11.5711C179.619 8.9333 178.945 6.3255 177.518 4.25725C177.389 4.04743 177.104 4.01745 176.922 4.16733C176.74 4.34717 176.689 4.67689 176.844 4.88672C178.115 6.74515 178.737 9.11314 178.556 11.4811C178.219 15.9474 175.184 19.4844 171.346 19.934C169.037 20.2038 166.833 19.3645 165.121 17.596C163.435 15.8574 162.45 13.3396 162.45 10.7018C162.424 8.27385 163.254 5.93583 164.784 4.16733C166.34 2.36884 168.493 1.34971 170.697 1.34971H183.899C184.832 1.34971 185.714 1.8293 186.285 2.66859L198.708 20.8033C198.864 21.0131 199.149 21.073 199.331 20.8932C199.512 20.7133 199.564 20.3836 199.408 20.1738L186.959 2.03912C186.207 0.960034 185.092 0.330566 183.899 0.330566H170.697C168.259 0.330566 165.873 1.4696 164.161 3.47791C162.476 5.42626 161.542 8.00408 161.568 10.7318ZM184.625 20.1738C184.495 20.3836 184.521 20.7133 184.703 20.8932C184.781 20.9531 184.884 20.9831 184.988 20.9831C185.118 20.9831 185.247 20.9232 185.325 20.8033L191.031 12.5003C191.161 12.2605 191.135 11.9607 190.953 11.7809C190.772 11.601 190.486 11.631 190.331 11.8708L184.625 20.1738Z" fill="#AF2818"/>
</svg>
